<mxfile modified="2023-07-26T07:32:11.063Z" host="app.diagrams.net" agent="Mozilla/5.0 (Windows NT 10.0; Win64; x64) AppleWebKit/537.36 (KHTML, like Gecko) Chrome/114.0.0.0 Safari/537.36" etag="H8UNKEyFdVKnJQnspxAL" version="21.6.5" type="github">
  <diagram id="Ht1M8jgEwFfnCIfOTk4-" name="Page-1">
    <mxGraphModel dx="1306" dy="2605" grid="1" gridSize="10" guides="1" tooltips="1" connect="1" arrows="1" fold="1" page="1" pageScale="1" pageWidth="1169" pageHeight="827" math="0" shadow="0">
      <root>
        <mxCell id="0" />
        <mxCell id="1" parent="0" />
        <mxCell id="eEpp52usMIOgdhoKXrHj-10" value="" style="whiteSpace=wrap;html=1;movable=0;resizable=0;rotatable=0;deletable=0;editable=0;locked=1;connectable=0;" vertex="1" parent="1">
          <mxGeometry x="170" y="-1569" width="342" height="418" as="geometry" />
        </mxCell>
        <mxCell id="eEpp52usMIOgdhoKXrHj-6" value="" style="whiteSpace=wrap;html=1;movable=0;resizable=0;rotatable=0;deletable=0;editable=0;locked=1;connectable=0;" vertex="1" parent="1">
          <mxGeometry x="530" y="-1569" width="312" height="418" as="geometry" />
        </mxCell>
        <mxCell id="eEpp52usMIOgdhoKXrHj-5" value="" style="whiteSpace=wrap;html=1;movable=0;resizable=0;rotatable=0;deletable=0;editable=0;locked=1;connectable=0;" vertex="1" parent="1">
          <mxGeometry x="860" y="-1569" width="270" height="418" as="geometry" />
        </mxCell>
        <mxCell id="UEzPUAAOIrF-is8g5C7q-158" value="Amazon S3&lt;br&gt;Bucket&lt;br&gt;" style="outlineConnect=0;fontColor=#232F3E;gradientColor=none;fillColor=#277116;strokeColor=none;dashed=0;verticalLabelPosition=bottom;verticalAlign=top;align=center;html=1;fontSize=12;fontStyle=0;aspect=fixed;pointerEvents=1;shape=mxgraph.aws4.bucket_with_objects;labelBackgroundColor=#ffffff;" parent="1" vertex="1">
          <mxGeometry x="200" y="-1400" width="75" height="78" as="geometry" />
        </mxCell>
        <mxCell id="jYt_QzySd-E0bAOZYsy2-1" value="Lambda" style="outlineConnect=0;fontColor=#232F3E;gradientColor=#F78E04;gradientDirection=north;fillColor=#D05C17;strokeColor=#ffffff;dashed=0;verticalLabelPosition=bottom;verticalAlign=top;align=center;html=1;fontSize=12;fontStyle=0;aspect=fixed;shape=mxgraph.aws4.resourceIcon;resIcon=mxgraph.aws4.lambda;labelBackgroundColor=#ffffff;spacingTop=8;" parent="1" vertex="1">
          <mxGeometry x="578" y="-1505" width="78" height="78" as="geometry" />
        </mxCell>
        <mxCell id="jYt_QzySd-E0bAOZYsy2-2" value="" style="sketch=0;points=[[0,0,0],[0.25,0,0],[0.5,0,0],[0.75,0,0],[1,0,0],[0,1,0],[0.25,1,0],[0.5,1,0],[0.75,1,0],[1,1,0],[0,0.25,0],[0,0.5,0],[0,0.75,0],[1,0.25,0],[1,0.5,0],[1,0.75,0]];outlineConnect=0;fontColor=#232F3E;gradientColor=#FF4F8B;gradientDirection=north;fillColor=#BC1356;strokeColor=#ffffff;dashed=0;verticalLabelPosition=bottom;verticalAlign=top;align=center;html=1;fontSize=12;fontStyle=0;aspect=fixed;shape=mxgraph.aws4.resourceIcon;resIcon=mxgraph.aws4.api_gateway;" parent="1" vertex="1">
          <mxGeometry x="738" y="-1400" width="78" height="78" as="geometry" />
        </mxCell>
        <mxCell id="jYt_QzySd-E0bAOZYsy2-3" value="" style="whiteSpace=wrap;html=1;shape=mxgraph.basic.document" parent="1" vertex="1">
          <mxGeometry x="212.5" y="-1550" width="50" height="60" as="geometry" />
        </mxCell>
        <mxCell id="jYt_QzySd-E0bAOZYsy2-4" value="" style="endArrow=classic;html=1;rounded=0;" parent="1" edge="1">
          <mxGeometry width="50" height="50" relative="1" as="geometry">
            <mxPoint x="236.79000000000002" y="-1470" as="sourcePoint" />
            <mxPoint x="236.79000000000002" y="-1410" as="targetPoint" />
          </mxGeometry>
        </mxCell>
        <mxCell id="jYt_QzySd-E0bAOZYsy2-5" value="websocket" style="text;html=1;align=center;verticalAlign=middle;resizable=0;points=[];autosize=1;strokeColor=none;fillColor=none;" parent="1" vertex="1">
          <mxGeometry x="736" y="-1310" width="80" height="30" as="geometry" />
        </mxCell>
        <mxCell id="jYt_QzySd-E0bAOZYsy2-6" value="" style="endArrow=classic;html=1;rounded=0;" parent="1" edge="1">
          <mxGeometry width="50" height="50" relative="1" as="geometry">
            <mxPoint x="370" y="-1362" as="sourcePoint" />
            <mxPoint x="290" y="-1361.5" as="targetPoint" />
          </mxGeometry>
        </mxCell>
        <mxCell id="jYt_QzySd-E0bAOZYsy2-7" value="" style="endArrow=classic;html=1;rounded=0;entryX=0;entryY=0.5;entryDx=0;entryDy=0;entryPerimeter=0;" parent="1" edge="1" target="jYt_QzySd-E0bAOZYsy2-2" source="jYt_QzySd-E0bAOZYsy2-1">
          <mxGeometry width="50" height="50" relative="1" as="geometry">
            <mxPoint x="666" y="-1461" as="sourcePoint" />
            <mxPoint x="730" y="-1360" as="targetPoint" />
          </mxGeometry>
        </mxCell>
        <mxCell id="jYt_QzySd-E0bAOZYsy2-8" value="" style="endArrow=classic;html=1;rounded=0;" parent="1" edge="1">
          <mxGeometry width="50" height="50" relative="1" as="geometry">
            <mxPoint x="940" y="-1361.59" as="sourcePoint" />
            <mxPoint x="1030" y="-1420" as="targetPoint" />
          </mxGeometry>
        </mxCell>
        <mxCell id="jYt_QzySd-E0bAOZYsy2-9" value="" style="endArrow=classic;html=1;rounded=0;" parent="1" edge="1">
          <mxGeometry width="50" height="50" relative="1" as="geometry">
            <mxPoint x="940" y="-1361.59" as="sourcePoint" />
            <mxPoint x="1029" y="-1310" as="targetPoint" />
          </mxGeometry>
        </mxCell>
        <mxCell id="jYt_QzySd-E0bAOZYsy2-11" value="" style="image;points=[];aspect=fixed;html=1;align=center;shadow=0;dashed=0;image=img/lib/allied_telesis/security/DVS_Surveillance_Monitor.svg;" parent="1" vertex="1">
          <mxGeometry x="1050" y="-1460" width="42" height="60" as="geometry" />
        </mxCell>
        <mxCell id="jYt_QzySd-E0bAOZYsy2-12" value="" style="image;points=[];aspect=fixed;html=1;align=center;shadow=0;dashed=0;image=img/lib/allied_telesis/security/DVS_Surveillance_Monitor.svg;" parent="1" vertex="1">
          <mxGeometry x="1050" y="-1330" width="42" height="60" as="geometry" />
        </mxCell>
        <mxCell id="jYt_QzySd-E0bAOZYsy2-14" value="S3イベント" style="text;html=1;align=center;verticalAlign=middle;resizable=0;points=[];autosize=1;strokeColor=none;fillColor=none;" parent="1" vertex="1">
          <mxGeometry x="572" y="-1550" width="90" height="30" as="geometry" />
        </mxCell>
        <mxCell id="jYt_QzySd-E0bAOZYsy2-16" value="csv" style="text;html=1;align=center;verticalAlign=middle;resizable=0;points=[];autosize=1;strokeColor=none;fillColor=none;" parent="1" vertex="1">
          <mxGeometry x="217.5" y="-1530" width="40" height="30" as="geometry" />
        </mxCell>
        <mxCell id="jYt_QzySd-E0bAOZYsy2-17" value="" style="sketch=0;points=[[0,0,0],[0.25,0,0],[0.5,0,0],[0.75,0,0],[1,0,0],[0,1,0],[0.25,1,0],[0.5,1,0],[0.75,1,0],[1,1,0],[0,0.25,0],[0,0.5,0],[0,0.75,0],[1,0.25,0],[1,0.5,0],[1,0.75,0]];outlineConnect=0;fontColor=#232F3E;gradientColor=#945DF2;gradientDirection=north;fillColor=#5A30B5;strokeColor=#ffffff;dashed=0;verticalLabelPosition=bottom;verticalAlign=top;align=center;html=1;fontSize=12;fontStyle=0;aspect=fixed;shape=mxgraph.aws4.resourceIcon;resIcon=mxgraph.aws4.athena;" parent="1" vertex="1">
          <mxGeometry x="380" y="-1400" width="78" height="78" as="geometry" />
        </mxCell>
        <mxCell id="jYt_QzySd-E0bAOZYsy2-18" value="athena" style="text;html=1;align=center;verticalAlign=middle;resizable=0;points=[];autosize=1;strokeColor=none;fillColor=none;" parent="1" vertex="1">
          <mxGeometry x="389" y="-1315" width="60" height="30" as="geometry" />
        </mxCell>
        <mxCell id="jYt_QzySd-E0bAOZYsy2-19" value="" style="endArrow=classic;html=1;rounded=0;entryX=1;entryY=0.25;entryDx=0;entryDy=0;entryPerimeter=0;" parent="1" edge="1" target="jYt_QzySd-E0bAOZYsy2-17">
          <mxGeometry width="50" height="50" relative="1" as="geometry">
            <mxPoint x="580" y="-1470" as="sourcePoint" />
            <mxPoint x="450" y="-1366.09" as="targetPoint" />
          </mxGeometry>
        </mxCell>
        <mxCell id="jYt_QzySd-E0bAOZYsy2-20" value="5min.&amp;nbsp;" style="text;html=1;align=center;verticalAlign=middle;resizable=0;points=[];autosize=1;strokeColor=none;fillColor=none;" parent="1" vertex="1">
          <mxGeometry x="262.5" y="-1470" width="60" height="30" as="geometry" />
        </mxCell>
        <mxCell id="mIh3uU4qznUBxf96E2sO-1" value="Lambda" style="outlineConnect=0;fontColor=#232F3E;gradientColor=#F78E04;gradientDirection=north;fillColor=#D05C17;strokeColor=#ffffff;dashed=0;verticalLabelPosition=bottom;verticalAlign=top;align=center;html=1;fontSize=12;fontStyle=0;aspect=fixed;shape=mxgraph.aws4.resourceIcon;resIcon=mxgraph.aws4.lambda;labelBackgroundColor=#ffffff;spacingTop=8;" parent="1" vertex="1">
          <mxGeometry x="578" y="-1282" width="78" height="78" as="geometry" />
        </mxCell>
        <mxCell id="mIh3uU4qznUBxf96E2sO-2" value="S3イベント" style="text;html=1;align=center;verticalAlign=middle;resizable=0;points=[];autosize=1;strokeColor=none;fillColor=none;" parent="1" vertex="1">
          <mxGeometry x="572" y="-1327" width="90" height="30" as="geometry" />
        </mxCell>
        <mxCell id="mIh3uU4qznUBxf96E2sO-3" value="" style="endArrow=classic;html=1;rounded=0;entryX=1;entryY=0.75;entryDx=0;entryDy=0;entryPerimeter=0;" parent="1" edge="1" target="jYt_QzySd-E0bAOZYsy2-17">
          <mxGeometry width="50" height="50" relative="1" as="geometry">
            <mxPoint x="572" y="-1240" as="sourcePoint" />
            <mxPoint x="460" y="-1356.09" as="targetPoint" />
          </mxGeometry>
        </mxCell>
        <mxCell id="eEpp52usMIOgdhoKXrHj-2" value="" style="fontColor=#0066CC;verticalAlign=top;verticalLabelPosition=bottom;labelPosition=center;align=center;html=1;outlineConnect=0;fillColor=#CCCCCC;strokeColor=#6881B3;gradientColor=none;gradientDirection=north;strokeWidth=2;shape=mxgraph.networks.desktop_pc;" vertex="1" parent="1">
          <mxGeometry x="890" y="-1390" width="30" height="60" as="geometry" />
        </mxCell>
        <mxCell id="eEpp52usMIOgdhoKXrHj-1" value="" style="dashed=0;outlineConnect=0;html=1;align=center;labelPosition=center;verticalLabelPosition=bottom;verticalAlign=top;shape=mxgraph.weblogos.chrome" vertex="1" parent="1">
          <mxGeometry x="900" y="-1372.4" width="51.98" height="52.4" as="geometry" />
        </mxCell>
        <mxCell id="eEpp52usMIOgdhoKXrHj-3" value="" style="endArrow=classic;html=1;rounded=0;" edge="1" parent="1">
          <mxGeometry width="50" height="50" relative="1" as="geometry">
            <mxPoint x="820" y="-1360" as="sourcePoint" />
            <mxPoint x="890" y="-1360.2" as="targetPoint" />
          </mxGeometry>
        </mxCell>
        <mxCell id="eEpp52usMIOgdhoKXrHj-9" value="" style="endArrow=classic;html=1;rounded=0;entryX=0;entryY=0.5;entryDx=0;entryDy=0;entryPerimeter=0;" edge="1" parent="1" source="mIh3uU4qznUBxf96E2sO-1" target="jYt_QzySd-E0bAOZYsy2-2">
          <mxGeometry width="50" height="50" relative="1" as="geometry">
            <mxPoint x="660" y="-1280" as="sourcePoint" />
            <mxPoint x="740" y="-1350" as="targetPoint" />
          </mxGeometry>
        </mxCell>
      </root>
    </mxGraphModel>
  </diagram>
</mxfile>
